# xmcd
#
# Track frame offsets: 
#        150
#        10374
#        23570
#        35786
#        47352
#        56827
#        72959
#        84153
#        96684
#        113223
#        131909
#        144272
#        158223
#        174456
#        188320
#        204312
#        219501
#        234598
#
# Disc length: 3268 seconds
#
# Revision: 0
# Processed by: cddbd v1.5.2PL0 Copyright (c) Steve Scherf et al.
# Submitted via: ExactAudioCopy v0.99pb3
#
DISCID=f40cc212
DTITLE=Various Artist - Country Roads - The Best Country CD For Miles CD2
DYEAR=2007
DGENRE=Country
TTITLE0=George Jones - Walk Through This World With Me
TTITLE1=Kenny Rogers - Ruby Don't Take Your Love To Town
TTITLE2=Dolly Parton - Makin' Believe
TTITLE3=Patsy Cline - Walkin' After Midnight
TTITLE4=Ernest Tubb and Merle Haggard - Walking The Floor Over You
TTITLE5=Becky Hobbs - Honky Tonk Saturday Night
TTITLE6=Roger Miller - Husbands And Wives
TTITLE7=Glen Campbell - By The Time I Get To Phoenix
TTITLE8=Cal Smith - Country Bumpkin
TTITLE9=Juice Newton - Angel Of The Morning
TTITLE10=Johnny Russell - Rednecks, White Sox And Blue Ribbon Beer
TTITLE11=Johnny Paycheck - Someone To Give My Love To
TTITLE12=Billie Jo Spears - Try A Little Kindness
TTITLE13=Mickey Gilley - Don't The Girls All Get Prettier At Closing T
TTITLE13=ime (Live)
TTITLE14=Johnny Lee - Looking For Love
TTITLE15=Moe Bandy - Hank Williams You Wrote My Life
TTITLE16=Lee Greenwood - Dixie Road
TTITLE17=Willie Nelson - Blue Eyes Crying In The Rain
EXTD=
EXTT0=
EXTT1=
EXTT2=
EXTT3=
EXTT4=
EXTT5=
EXTT6=
EXTT7=
EXTT8=
EXTT9=
EXTT10=
EXTT11=
EXTT12=
EXTT13=
EXTT14=
EXTT15=
EXTT16=
EXTT17=
PLAYORDER=
